# xmcd
#
# Track frame offsets:
#	182
#	15242
#	31980
#	46217
#	61140
#	75717
#	89202
#	103550
#	120692
#	142637
#	154350
#
# Disc length: 2305 seconds
#
# Revision: 1
# Processed by: cddbd v1.5.2PL0 Copyright (c) Steve Scherf et al.
# Submitted via: audiograbber 1.83.01
#
DISCID=8108ff0b
DTITLE=John Hammond - Source Point
DYEAR=1971
DGENRE=Blues
TTITLE0=I got love if you want it
TTITLE1=Hoo-Doo blues
TTITLE2=Mellow down easy
TTITLE3=Takin' care of business
TTITLE4=She moves me
TTITLE5=Let's go home
TTITLE6=Tell me mama
TTITLE7=No place to go
TTITLE8=My first plea
TTITLE9=Junco partner
TTITLE10=As the years go passing by
EXTD=
EXTT0=
EXTT1=
EXTT2=
EXTT3=
EXTT4=
EXTT5=
EXTT6=
EXTT7=
EXTT8=
EXTT9=
EXTT10=
PLAYORDER=
